<svg width="27" height="27" viewBox="0 0 27 27" fill="none" xmlns="http://www.w3.org/2000/svg">
<g id="bi:person">
<g id="Group">
<path id="Vector" d="M13.5 13.5C14.8427 13.5 16.1303 12.9666 17.0797 12.0172C18.0291 11.0678 18.5625 9.78016 18.5625 8.4375C18.5625 7.09484 18.0291 5.80717 17.0797 4.85777C16.1303 3.90837 14.8427 3.375 13.5 3.375C12.1573 3.375 10.8697 3.90837 9.92027 4.85777C8.97087 5.80717 8.4375 7.09484 8.4375 8.4375C8.4375 9.78016 8.97087 11.0678 9.92027 12.0172C10.8697 12.9666 12.1573 13.5 13.5 13.5ZM16.875 8.4375C16.875 9.33261 16.5194 10.1911 15.8865 10.824C15.2535 11.4569 14.3951 11.8125 13.5 11.8125C12.6049 11.8125 11.7464 11.4569 11.1135 10.824C10.4806 10.1911 10.125 9.33261 10.125 8.4375C10.125 7.54239 10.4806 6.68395 11.1135 6.05101C11.7464 5.41808 12.6049 5.0625 13.5 5.0625C14.3951 5.0625 15.2535 5.41808 15.8865 6.05101C16.5194 6.68395 16.875 7.54239 16.875 8.4375ZM23.625 21.9375C23.625 23.625 21.9375 23.625 21.9375 23.625H5.0625C5.0625 23.625 3.375 23.625 3.375 21.9375C3.375 20.25 5.0625 15.1875 13.5 15.1875C21.9375 15.1875 23.625 20.25 23.625 21.9375ZM21.9375 21.9307C21.9358 21.5156 21.6776 20.2669 20.5335 19.1227C19.4333 18.0225 17.3627 16.875 13.5 16.875C9.63562 16.875 7.56675 18.0225 6.4665 19.1227C5.32238 20.2669 5.06588 21.5156 5.0625 21.9307H21.9375Z" fill="black"/>
</g>
</g>
</svg>
