<svg width="27" height="27" viewBox="0 0 27 27" fill="none" xmlns="http://www.w3.org/2000/svg">
<g id="bi:person-fill">
<g id="Group">
<path id="Vector" d="M5.0625 23.625C5.0625 23.625 3.375 23.625 3.375 21.9375C3.375 20.25 5.0625 15.1875 13.5 15.1875C21.9375 15.1875 23.625 20.25 23.625 21.9375C23.625 23.625 21.9375 23.625 21.9375 23.625H5.0625ZM13.5 13.5C14.8427 13.5 16.1303 12.9666 17.0797 12.0172C18.0291 11.0678 18.5625 9.78016 18.5625 8.4375C18.5625 7.09484 18.0291 5.80717 17.0797 4.85777C16.1303 3.90837 14.8427 3.375 13.5 3.375C12.1573 3.375 10.8697 3.90837 9.92027 4.85777C8.97087 5.80717 8.4375 7.09484 8.4375 8.4375C8.4375 9.78016 8.97087 11.0678 9.92027 12.0172C10.8697 12.9666 12.1573 13.5 13.5 13.5Z" fill="#FF4791"/>
</g>
</g>
</svg>
